HIERARCHY
ROOT pelvis
{
  OFFSET 0 100 0
  CHANNELS 6 Xposition Yposition Zposition Zrotation Xrotation Yrotation
  JOINT pelvis_right_femur
  {
    OFFSET -10.78128 -3.44521 -0.5502486
    CHANNELS 3 Zrotation Xrotation Yrotation
    JOINT right_femur_tibia
    {
      OFFSET -0.8047443 -44.0398 -0.1307829
      CHANNELS 3 Zrotation Xrotation Yrotation
      JOINT right_tibia_foot
      {
        OFFSET 3.006224 -47.83518 -5
        CHANNELS 3 Zrotation Xrotation Yrotation
        End Site
        {
          OFFSET 0 -5 15
        }
      }
    }
  }
  JOINT pelvis_left_femur
  {
    OFFSET 10.78128 -3.44521 -0.5502486
    CHANNELS 3 Zrotation Xrotation Yrotation
    JOINT left_femur_tibia
    {
      OFFSET 0.8047443 -44.0398 -0.1307829
      CHANNELS 3 Zrotation Xrotation Yrotation
      JOINT left_tibia_foot
      {
        OFFSET -4.370144 -48.10324 -4.275266
        CHANNELS 3 Zrotation Xrotation Yrotation
        End Site
        {
          OFFSET 0 -5 15
        }
      }
    }
  }
  JOINT pelvis_spine1
  {
    OFFSET 0 6.468898 -3.129235
    CHANNELS 3 Zrotation Xrotation Yrotation
    JOINT spine1
    {
      OFFSET 0 23.15396 4.99043
      CHANNELS 3 Zrotation Xrotation Yrotation
      JOINT spine2
      {
        OFFSET 0 20.79997 -5.064912
        CHANNELS 3 Zrotation Xrotation Yrotation
        JOINT neck
        {
          OFFSET 0 14.38658 9.616178
          CHANNELS 3 Zrotation Xrotation Yrotation
          End Site
          {
            OFFSET 0 20 0
          }
        }
      }
      JOINT right_manubrium
      {
        OFFSET -5.722621 16.35077 3.967754
        CHANNELS 3 Zrotation Xrotation Yrotation
        JOINT right_clavicle
        {
          OFFSET -13.16364 1.694482 -4.693211
          CHANNELS 3 Zrotation Xrotation Yrotation
          JOINT right_humerus
          {
            OFFSET -28.5034 -0.3100689 -2.792744
            CHANNELS 3 Zrotation Xrotation Yrotation
            JOINT right_radius
            {
              OFFSET -25.15693 0.02248979 -1.271978
              CHANNELS 3 Zrotation Xrotation Yrotation
              End Site
              {
                OFFSET -15 0 0
              }
            }
          }
        }
      }
      JOINT left_manubrium
      {
        OFFSET 5.722621 16.35077 3.967754
        CHANNELS 3 Zrotation Xrotation Yrotation
        JOINT left_clavicle
        {
          OFFSET 13.16364 1.694482 -4.693211
          CHANNELS 3 Zrotation Xrotation Yrotation
          JOINT left_humerus
          {
            OFFSET 29.39168 -1.063119 -2.237045
            CHANNELS 3 Zrotation Xrotation Yrotation
            JOINT left_radius
            {
              OFFSET 24.59957 -0.9528479 0.9047498
              CHANNELS 3 Zrotation Xrotation Yrotation
              End Site
              {
                OFFSET 15 -0 -0
              }
            }
          }
        }
      }
    }
  }
}
MOTION
Frames: 21
Frame Time: 0.0416666666667
0 103.5113 0 2.292033 -0.5417632 -0.06023123 1.567153 -12.99567 11.43417 -0 39.75337 -0 -6.115584 -18.66801 -2.900108 -8.603763 7.866252 -23.54492 -0 3.48305 -0 17.49428 -11.54671 31.47401 -4.578288 -4.798032 6.110005 2.482351 10.74049 -7.750782 1.14766 21.78468 6.582508 2.560059 -24.97373 9.67806 6.485599 -21.39399 11.79206 86.70913 39.65622 -18.80171 -0 0 16.37345 -6.494863 7.575607 4.78476 4.704128 -19.02505 -1.843458 -91.10724 19.82122 20.72542 0 0 -15.47971 15.68087 12.47301 -2.883662
0.4078939 103.3991 1.416348 1.683863 0.0142298 -0.1629617 2.718332 -15.96128 11.12816 -0 38.749 -0 -6.103935 -17.53567 -2.875287 -8.137286 8.445368 -23.0049 -0 4.212501 -0 16.6282 -12.59588 30.68154 -4.210144 -4.367923 5.846396 2.597879 10.63977 -7.875999 1.221304 21.53015 6.651242 2.762837 -25.23071 9.719389 6.683897 -21.04333 11.76599 86.28896 39.68383 -18.75555 -0 0 16.37601 -6.333164 7.934873 4.40765 5.239253 -19.38971 -1.644785 -91.1784 20.02705 20.44064 0 0 -15.86844 15.96043 12.73303 -3.380504
0.7969906 103.217 4.400179 -0.4195419 -3.079799 0.09450266 2.950147 -19.72276 3.891804 -0 42.08652 -0 -8.706679 -3.133774 -1.212093 -5.372457 10.70183 -19.3744 -0 5.966761 -0 5.191492 -16.81472 21.7441 -2.202408 -1.665113 2.51688 1.459587 10.37669 -6.486945 1.787675 22.73933 6.495467 3.501594 -23.33004 8.741423 4.928713 -19.2506 11.6426 85.99355 30.16406 -16.12764 -0 0 14.288 -13.80026 8.91977 8.175586 5.985639 -20.20084 -3.713366 -91.47119 23.17863 19.31413 0 0 -13.94676 10.55389 18.3177 1.416714
1.168233 102.9636 8.071021 -0.8763776 -3.413318 0.4239868 2.999368 -22.99717 1.043778 -0 37.11929 -0 -9.318907 0.4781284 -0.3688726 -4.785467 11.5532 -17.00826 -0 7.524855 -0 3.307318 -17.7571 18.92724 -1.686778 -0.848392 1.816105 1.429171 10.55488 -6.413939 1.75227 22.934 6.564912 3.638761 -22.73484 8.424556 4.149603 -18.50549 11.72733 86.78078 27.7992 -16.54044 -0 0 12.33407 -16.15263 9.314461 9.247475 6.443996 -21.30655 -4.601128 -90.1161 22.26121 17.1957 0 0 -15.52705 11.27172 18.57638 0.3990446
1.503875 102.4619 12.17237 -0.938439 -1.582125 0.8875853 3.694418 -27.90331 0.2771211 -0 26.70728 -0 -8.51845 0.3687604 -0.001793761 -4.93135 13.00138 -15.86688 -0 8.372216 -0 3.351349 -19.37809 17.80417 -1.794027 -0.7326348 2.044322 2.074335 10.34598 -6.83072 1.726991 22.43337 6.606387 3.497663 -23.4201 8.638153 3.829901 -18.00674 11.65512 87.50652 28.33467 -18.33848 -0 0 10.85614 -15.17588 9.361315 8.766548 6.841882 -22.11801 -4.483665 -89.12623 22.1291 15.86812 0 0 -19.1974 11.7175 17.31944 0.02945286
1.868315 101.4802 16.81214 -0.4194291 -0.9716172 1.481113 3.192609 -29.802 -1.756593 -0 18.24 -0 -8.16715 1.996769 0.7359903 -5.394736 13.64633 -14.29288 -0 8.629997 -0 3.348074 -20.44648 16.68223 -2.158217 -0.5846388 2.223084 2.201494 10.36226 -6.810153 1.652152 22.28171 6.611809 3.501093 -23.1611 8.437194 3.147591 -17.56454 11.64697 88.50982 27.97374 -19.3703 -0 0 9.215343 -15.9662 9.309311 9.122086 7.241411 -22.95831 -4.882817 -87.64295 20.79584 13.88238 0 0 -22.28253 12.37273 16.0541 -0.9967645
2.299909 99.98982 22.03534 0.5070768 -1.641673 2.200249 1.739685 -29.40315 -5.064408 -0 11.55673 -0 -8.299055 4.480308 1.599006 -6.010098 14.12486 -12.28165 -0 8.013125 -0 3.112739 -21.19499 15.37306 -2.522032 -0.5345317 2.290289 1.827573 10.54261 -6.511349 1.497672 22.58248 6.576634 3.57274 -21.97832 7.831235 1.95699 -17.26562 11.66675 89.95624 26.03901 -20.03605 -0 0 7.287614 -18.44117 9.143108 10.10476 7.710397 -24.17464 -5.850754 -85.79361 18.71347 11.18953 0 0 -25.38269 13.09371 15.37063 -2.320952
2.798196 98.16275 27.77376 1.43425 -2.605487 2.989396 0.5513975 -28.22348 -7.897933 -0 6.530713 -0 -8.592609 6.237747 2.098812 -6.635905 14.85744 -10.47671 -0 7.328516 -0 2.917996 -21.69547 14.39044 -2.680154 -0.8383918 2.443307 1.271817 10.7056 -6.275113 1.347803 22.99112 6.45789 3.575598 -20.70716 7.171938 0.5212481 -17.24641 11.55544 91.68165 23.51789 -20.8775 -0 0 5.647478 -20.76965 8.764131 10.77046 8.179545 -25.57647 -6.755803 -84.19954 16.92365 8.745664 0 0 -28.71228 13.49175 15.12833 -3.139435
3.325309 96.24959 33.93229 2.002411 -3.412031 3.703727 0.2316724 -27.19659 -9.430433 -0 3.497476 -0 -9.100918 7.097838 2.074088 -7.055116 15.86495 -9.02705 -0 8.021286 -0 2.806082 -21.62542 13.7628 -2.46159 -1.515523 2.675231 0.7590154 10.92789 -6.333699 1.233845 23.24964 6.227978 3.477416 -19.82334 6.57847 -0.9528733 -17.53522 11.29281 93.50703 21.01121 -22.05759 -0 0 4.62544 -22.22014 8.231385 10.8224 8.49546 -27.0067 -7.350569 -83.02933 15.68785 7.055602 0 0 -31.99273 13.486 15.06035 -3.262984
3.811313 94.55253 40.36832 1.991121 -4.134958 4.165256 0.8811687 -26.42515 -9.52957 -0 2.94096 -0 -9.964196 7.267936 1.588202 -7.018622 16.66259 -7.91972 -0 11.83972 -0 2.802513 -20.43527 13.38492 -1.803197 -2.367704 2.877526 0.4283016 11.42678 -6.736158 1.145607 23.30738 5.950138 3.345589 -19.41016 6.094627 -2.177652 -18.00697 11.0257 95.09091 18.89147 -23.37301 -0 0 4.245546 -22.9433 7.857157 10.44224 8.483728 -28.29169 -7.725105 -82.40147 14.78959 6.369484 0 0 -34.28201 13.44833 15.09999 -3.185144
4.184376 93.32229 46.93542 1.555601 -4.963739 4.263675 2.187161 -25.42521 -8.6623 -0 4.01155 -0 -11.04535 7.075876 0.8749757 -6.529973 16.57719 -7.025081 -0 19.37492 -0 2.938099 -18.07581 13.18948 -0.9030466 -3.125843 3.066498 0.2918495 12.29973 -7.310392 1.068913 23.22535 5.715444 3.296434 -19.25889 5.710095 -2.961114 -18.48259 10.92052 96.1757 17.40384 -24.53354 -0 0 4.326086 -23.42326 7.95251 9.923733 8.15128 -29.32719 -8.094614 -82.35909 13.86577 6.627547 0 0 -34.99074 13.74834 15.17573 -3.486502
4.409086 92.6726 53.52438 1.031648 -5.94479 3.992658 3.673262 -23.69802 -7.463216 -0 5.341506 -0 -12.04675 6.838234 0.1567034 -5.798823 15.29001 -6.176538 -0 29.25651 -0 3.156526 -15.11114 13.13434 -0.04807886 -3.644818 3.353357 0.263438 13.43001 -7.827314 1.008307 23.05434 5.532468 3.376603 -19.16814 5.363705 -3.348437 -18.93431 11.01672 96.74753 16.47661 -25.33673 -0 0 4.784756 -23.96425 8.537971 9.441401 7.638984 -30.10287 -8.590313 -82.8436 12.81121 7.663595 0 0 -34.2542 14.29404 15.20928 -4.142932
4.486031 92.59835 60.06024 0.6050014 -6.990887 3.408857 5.042944 -21.11666 -6.273348 -0 6.238355 -0 -12.78193 6.662155 -0.4803389 -4.982463 12.92563 -5.28132 -0 39.5287 -0 3.386066 -12.1061 13.17224 0.6146023 -3.936954 3.803603 0.2721998 14.64291 -8.175322 0.9724113 22.79784 5.346417 3.53131 -19.09821 5.010149 -3.493187 -19.46302 11.2591 96.93029 15.85341 -25.71297 -0 0 5.669971 -24.55086 9.442057 9.046459 7.041893 -30.6395 -9.214761 -83.75956 11.75873 9.396393 0 0 -32.48162 14.75918 15.17239 -4.747452
4.435257 93.02364 66.48273 0.2900561 -8.00702 2.587901 6.210962 -17.75636 -5.132982 -0 6.701546 -0 -13.20094 6.425208 -1.050404 -4.1107 9.734139 -4.35668 -0 48.75098 -0 3.60012 -9.324451 13.27561 1.070576 -4.06489 4.408059 0.2952347 15.81196 -8.331513 0.9715004 22.45507 5.100312 3.657066 -19.08118 4.661884 -3.512791 -20.1725 11.58642 96.8332 15.31622 -25.62658 -0 0 7.039313 -25.02098 10.51368 8.76913 6.370689 -30.90999 -9.902111 -85.04084 10.88678 11.83145 0 0 -29.9466 14.89338 15.09859 -4.939458
4.29178 93.82649 72.73983 0.04253347 -8.939234 1.606271 7.163962 -13.69974 -3.97871 -0 6.982605 -0 -13.30362 5.885576 -1.596817 -3.15646 5.92956 -3.484983 -0 55.88491 -0 3.802597 -6.848586 13.45281 1.353078 -4.083171 5.118346 0.3253856 16.85109 -8.291387 1.021442 22.04168 4.749996 3.641559 -19.12977 4.368826 -3.480836 -21.13596 11.95068 96.52133 14.7264 -25.00956 -0 0 8.921544 -25.22949 11.67249 8.680344 5.612034 -30.8365 -10.55504 -86.63969 10.32062 14.97537 0 0 -26.80944 14.55552 15.04446 -4.496264
4.107585 94.84626 78.79608 -0.1834365 -9.749218 0.5362711 7.880474 -9.055239 -2.762302 -0 7.323084 -0 -13.10212 4.794517 -2.14938 -2.096564 1.725658 -2.749995 -0 59.97106 -0 4.011732 -4.725855 13.72424 1.503247 -4.04401 5.870208 0.3571616 17.69753 -8.067469 1.131232 21.57189 4.265137 3.386934 -19.23142 4.175445 -3.454775 -22.41441 12.30718 96.04507 14.00678 -23.79709 -0 0 11.32544 -25.1183 12.87124 8.89425 4.769103 -30.3486 -11.0594 -88.47258 10.09399 18.76094 0 0 -23.30147 13.66262 15.02928 -3.291043
3.949775 95.89094 84.64389 -0.423653 -10.3861 -0.5584492 8.317315 -4.034324 -1.50241 -0 7.888162 -0 -12.6278 2.972846 -2.690075 -0.9310932 -2.626976 -2.200714 -0 60.122 -0 4.250865 -3.018268 14.09279 1.56045 -4.000764 6.587956 0.3861209 18.30505 -7.704531 1.283439 21.05113 3.652374 2.851103 -19.35473 4.092154 -3.458008 -24.0362 12.61466 95.43125 13.1872 -21.9802 -0 0 14.22791 -24.75046 14.08022 9.529997 3.88235 -29.44147 -11.30529 -90.3857 10.13734 22.98654 0 0 -19.77853 12.2234 15.01524 -1.344707
3.88955 96.75685 90.30828 -0.7039268 -10.77638 -1.62975 8.435604 1.003244 -0.301943 -0 8.754981 -0 -11.94708 0.3678068 -3.138209 0.3125606 -6.841849 -1.849992 -0 55.82473 -0 4.51923 -1.795421 14.53447 1.559994 -3.991319 7.184296 0.4076522 18.63026 -7.273567 1.428356 20.49575 2.985807 2.093628 -19.4466 4.094912 -3.446078 -25.9278 12.84193 94.6443 12.46133 -19.63932 -0 0 17.52085 -24.30194 15.2758 10.64053 3.041767 -28.201 -11.21476 -92.16462 10.32126 27.27642 0 0 -16.61697 10.40558 14.9496 1.086972
3.981579 97.26538 95.83972 -1.039536 -10.84743 -2.652915 8.250571 5.595499 0.6767897 -0 9.872747 -0 -11.16137 -2.906819 -3.38491 1.573647 -10.63007 -1.692759 -0 47.44954 -0 4.750039 -1.089286 15.01596 1.532509 -4.016149 7.573749 0.4175617 18.62627 -6.844109 1.505074 19.96378 2.40772 1.284703 -19.43437 4.150359 -3.312083 -27.85358 12.97443 93.57761 12.13614 -16.95649 -0 0 20.94569 -23.98516 16.40516 12.13223 2.376756 -26.78639 -10.77321 -93.61097 10.54008 31.12172 0 0 -14.02288 8.532489 14.83995 3.523148
4.242576 97.30454 101.2951 -1.428347 -10.58311 -3.630494 7.856727 9.343669 1.284036 -0 11.02854 -0 -10.38596 -6.580552 -3.368113 2.752202 -13.76412 -1.732024 -0 36.5466 -0 4.798978 -0.8429978 15.52454 1.500394 -4.031785 7.705989 0.415065 18.25985 -6.449547 1.48212 19.56166 2.072118 0.6430937 -19.24488 4.244013 -2.952828 -29.45176 13.01272 92.12564 12.44485 -14.18472 -0 0 24.09986 -23.91694 17.34767 13.7415 2.011607 -25.36781 -10.04608 -94.66041 10.77273 34.04412 0 0 -11.89212 6.953469 14.78235 5.441408
4.644502 96.85139 106.7196 -1.839533 -10.06484 -4.585824 7.377934 12.09772 1.461988 -0 11.93454 -0 -9.729544 -10.29015 -3.119889 3.719852 -16.14249 -1.993643 -0 25.40854 -0 4.50142 -0.9146335 16.07381 1.470519 -3.972858 7.597905 0.3988257 17.54134 -6.071702 1.381968 19.40358 2.060341 0.3310608 -18.83564 4.380065 -2.352482 -30.39134 12.95804 90.30218 13.38012 -11.57131 -0 0 26.5675 -24.03959 17.92957 15.12984 2.005833 -24.05602 -9.156845 -95.41825 11.06758 35.79505 0 0 -9.895755 5.872895 14.88929 6.537763
